<svg version="1.1" id="Warstwa_1" xmlns="http://www.w3.org/2000/svg" x="0" y="0" viewBox="0 0 590.89 377.72" xml:space="preserve"><style>.st1{fill:#b2b0b2}.st2{fill:#898789}</style><g opacity=".1"><path class="st1" d="M390.64 232.51c-.45-.81-.99-1.61-1.48-2.47l-48.28-82.92-73.45-126.05c-2.4-6.91-7.13-12.96-13.92-16.86-15.05-8.66-34.31-3.5-43.01 11.52L27.13 330.59C18.45 345.61-.05 377.76-.05 377.76h54.49c10.87-.04 21.41-5.65 27.2-15.74L237.43 94.57l48.77 83.68 3.03 5.25 10.07 17.22 36.77 63.19h.02c2.49 4.8 3.9 10.31 3.9 16.1 0 19.24-15.61 34.84-34.87 34.84-19.24 0-34.85-15.61-34.85-34.84 0-14.12 8.41-26.32 20.45-31.79l-31.71-54.39c-30.76 16.41-51.66 48.88-51.66 86.19 0 53.99 43.77 97.76 97.76 97.76 30.74 0 58.21-14.22 76.05-36.37 13.63-16.77 21.75-38.16 21.75-61.39.02-17.24-4.47-33.42-12.27-47.51M563.25 330.45l-75.7-129.96-3.01-5.2-10.02-17.22-36.8-63.18c-2.56-4.8-3.97-10.32-3.97-16.1 0-19.24 15.63-34.89 34.87-34.89 19.26 0 34.89 15.65 34.89 34.89 0 14.13-8.39 26.32-20.49 31.79l31.73 54.44c30.74-16.46 51.66-48.92 51.66-86.24 0-53.99-43.77-97.76-97.78-97.76-30.72 0-58.12 14.17-76.08 36.37-13.55 16.78-21.69 38.17-21.69 61.4 0 17.22 4.44 33.41 12.24 47.49.49.81 1.03 1.62 1.53 2.47h-.05l48.25 82.83 75.92 130.32c6.08 10.54 17.31 16.23 28.66 15.7 4.89-.18 53.59.04 53.59.04s-19.05-32.17-27.75-47.19"/><path class="st2" d="M286.2 178.25l3.05 5.25h-.05l10.07 17.22 36.79 63.19c2.51 4.8 3.95 10.31 3.95 16.1 0 19.24-15.6 34.84-34.89 34.84-19.26 0-34.85-15.61-34.85-34.84 0-14.12 8.39-26.32 20.45-31.79l-31.71-54.44c-30.74 16.46-51.66 48.93-51.66 86.24 0 53.99 43.77 97.76 97.76 97.76 30.72 0 58.18-14.22 76.08-36.37 13.59-16.77 21.73-38.16 21.73-61.39 0-17.22-4.46-33.41-12.29-47.49-.45-.81-.99-1.61-1.5-2.47h.02l-48.3-82.87-54.65 31.06zM487.55 200.49l-3.01-5.2-10.02-17.22-36.8-63.18c-2.53-4.8-3.95-10.32-3.95-16.1 0-19.24 15.61-34.89 34.84-34.89 19.26 0 34.89 15.65 34.89 34.89 0 14.17-8.39 26.32-20.47 31.79l31.71 54.44c30.74-16.46 51.66-48.92 51.66-86.24 0-53.99-43.77-97.76-97.78-97.76-30.72 0-58.12 14.17-76.08 36.37-13.57 16.77-21.68 38.16-21.68 61.39 0 17.22 4.44 33.41 12.24 47.49.49.81 1.03 1.62 1.53 2.47h-.05l48.25 82.83 54.72-31.08z"/></g></svg>